<?xml version="1.0" encoding="UTF-8" standalone="no"?>
<svg
   width="64"
   height="64"
   viewBox="0 0 24 24"
   fill="none"
   stroke="#ffa200"
   stroke-width="1"
   stroke-linecap="round"
   stroke-linejoin="round"
   class="lucide lucide-fullscreen-icon lucide-fullscreen"
   version="1.1"
   id="svg4"
   xmlns="http://www.w3.org/2000/svg"
   xmlns:svg="http://www.w3.org/2000/svg">
  <defs
     id="defs4" />
  <path
     d="M3 7V5a2 2 0 0 1 2-2h2"
     id="path1" />
  <path
     d="M17 3h2a2 2 0 0 1 2 2v2"
     id="path2" />
  <path
     d="M21 17v2a2 2 0 0 1-2 2h-2"
     id="path3" />
  <path
     d="M7 21H5a2 2 0 0 1-2-2v-2"
     id="path4" />
  <path
     d="M 10.877637,6.7725427 6.7723625,10.877567"
     id="path1-3"
     style="stroke-width:0.50006253;stroke-linecap:round;stroke-linejoin:round;stroke-dasharray:0.37504685,0.62507814;stroke-dashoffset:0;fill:none" />
  <path
     d="m 17.227637,13.122156 -4.105275,4.105025"
     id="path2-5"
     style="stroke-width:0.50006253;stroke-dasharray:0.37504688,0.62507814;stroke-dashoffset:0;fill:none" />
  <path
     d="m 7.2375,11.999861 h 9.525001"
     id="path3-6"
     style="stroke-width:1" />
  <ellipse
     cx="12"
     cy="18.349474"
     id="circle3"
     style="fill:none;stroke-width:0.50006253;stroke-dasharray:0.37504688,0.62507814;stroke-dashoffset:0"
     rx="1.5875"
     ry="1.5874032" />
  <ellipse
     cx="12"
     cy="5.6502485"
     id="circle4"
     style="fill:none;stroke-width:0.50006253;stroke-linecap:round;stroke-linejoin:round;stroke-dasharray:0.37504685,0.62507814;stroke-dashoffset:0"
     rx="1.5875"
     ry="1.5874032" />
  <ellipse
     cx="18.35"
     cy="11.999861"
     id="circle5"
     style="fill-opacity:1;stroke-width:1;fill:#ff6bee;fill-rule:nonzero"
     rx="1.5875"
     ry="1.5874032" />
  <ellipse
     cx="5.6500001"
     cy="11.999861"
     id="circle6"
     style="fill-opacity:1;stroke-width:1;fill:#ff6bee"
     rx="1.5875"
     ry="1.5874032" />
</svg>
