<?xml version="1.0" encoding="UTF-8" standalone="no"?>
<svg
   width="64"
   height="64"
   viewBox="0 0 24 24"
   fill="none"
   stroke="#ffa200"
   stroke-width="1"
   stroke-linecap="round"
   stroke-linejoin="round"
   class="lucide lucide-fullscreen-icon lucide-fullscreen"
   version="1.1"
   id="svg4"
   xmlns="http://www.w3.org/2000/svg"
   xmlns:svg="http://www.w3.org/2000/svg">
  <defs
     id="defs4" />
  <path
     d="M3 7V5a2 2 0 0 1 2-2h2"
     id="path1" />
  <path
     d="M17 3h2a2 2 0 0 1 2 2v2"
     id="path2" />
  <path
     d="M21 17v2a2 2 0 0 1-2 2h-2"
     id="path3" />
  <path
     d="M7 21H5a2 2 0 0 1-2-2v-2"
     id="path4" />
  <path
     d="m 13.418625,7.6599443 a 1.3472219,1.3463038 0 0 0 1.204417,0 l 2.464742,-1.231868 a 0.67361096,0.67315189 0 0 1 0.974715,0.6031441 v 8.5921106 a 0.67361096,0.67315189 0 0 1 -0.372507,0.601798 l -3.06695,1.532766 a 1.3472219,1.3463038 0 0 1 -1.204417,0 l -2.837249,-1.417657 a 1.3472219,1.3463038 0 0 0 -1.2044165,0 L 6.912217,17.572106 A 0.67361096,0.67315189 0 0 1 5.9375019,16.968288 V 8.3768511 A 0.67361096,0.67315189 0 0 1 6.3100088,7.7750533 L 9.3769595,6.2422864 a 1.3472219,1.3463038 0 0 1 1.2044165,0 z"
     id="path1-6"
     style="stroke-width:0.999998" />
  <path
     d="M 14.020834,7.8019794 V 17.899257"
     id="path2-7"
     style="stroke-width:0.999998" />
  <path
     d="M 9.9791674,6.1002514 V 16.197529"
     id="path3-5"
     style="stroke-width:0.999998" />
</svg>
